<svg width="50" height="50" viewBox="0 0 50 50" fill="none" xmlns="http://www.w3.org/2000/svg">
<circle cx="25" cy="25" r="25" fill="#151B47"/>
<path d="M15.3533 24.672L19.9617 26.2524L21.7454 31.5232C21.8595 31.8608 22.3088 31.9856 22.607 31.7616L25.1758 29.8374C25.4451 29.6358 25.8286 29.6258 26.11 29.8134L30.7432 32.9042C31.0622 33.1173 31.5141 32.9567 31.5941 32.6025L34.9882 17.6015C35.0756 17.2146 34.6618 16.8919 34.2609 17.0343L15.3479 23.7382C14.8811 23.9036 14.8852 24.5108 15.3533 24.672ZM21.4579 25.4111L30.4644 20.3142C30.6263 20.2228 30.7929 20.4239 30.6539 20.5424L23.2209 26.891C22.9596 27.1144 22.7911 27.4134 22.7433 27.7381L22.4901 29.4621C22.4566 29.6924 22.1047 29.7152 22.0355 29.4925L21.0617 26.3485C20.9502 25.9899 21.1127 25.6068 21.4579 25.4111Z" fill="white"/>
</svg>
