<svg width="50" height="50" viewBox="0 0 50 50" fill="none" xmlns="http://www.w3.org/2000/svg">
<circle cx="25" cy="25" r="25" fill="#151B47"/>
<path d="M24.05 27.95L22.2 29.8C21.81 30.19 21.19 30.19 20.79 29.81C20.68 29.7 20.57 29.6 20.46 29.49C19.43 28.45 18.5 27.36 17.67 26.22C16.85 25.08 16.19 23.94 15.71 22.81C15.24 21.67 15 20.58 15 19.54C15 18.86 15.12 18.21 15.36 17.61C15.6 17 15.98 16.44 16.51 15.94C17.15 15.31 17.85 15 18.59 15C18.87 15 19.15 15.06 19.4 15.18C19.66 15.3 19.89 15.48 20.07 15.74L22.39 19.01C22.57 19.26 22.7 19.49 22.79 19.71C22.88 19.92 22.93 20.13 22.93 20.32C22.93 20.56 22.86 20.8 22.72 21.03C22.59 21.26 22.4 21.5 22.16 21.74L21.4 22.53C21.29 22.64 21.24 22.77 21.24 22.93C21.24 23.01 21.25 23.08 21.27 23.16C21.3 23.24 21.33 23.3 21.35 23.36C21.53 23.69 21.84 24.12 22.28 24.64C22.73 25.16 23.21 25.69 23.73 26.22C23.83 26.32 23.94 26.42 24.04 26.52C24.44 26.91 24.45 27.55 24.05 27.95Z" fill="white"/>
<path d="M34.9716 31.33C34.9716 31.61 34.9216 31.9 34.8216 32.18C34.7916 32.26 34.7616 32.34 34.7216 32.42C34.5516 32.78 34.3316 33.12 34.0416 33.44C33.5516 33.98 33.0116 34.37 32.4016 34.62C32.3916 34.62 32.3816 34.63 32.3716 34.63C31.7816 34.87 31.1416 35 30.4516 35C29.4316 35 28.3416 34.76 27.1916 34.27C26.0416 33.78 24.8916 33.12 23.7516 32.29C23.3616 32 22.9716 31.71 22.6016 31.4L25.8716 28.13C26.1516 28.34 26.4016 28.5 26.6116 28.61C26.6616 28.63 26.7216 28.66 26.7916 28.69C26.8716 28.72 26.9516 28.73 27.0416 28.73C27.2116 28.73 27.3416 28.67 27.4516 28.56L28.2116 27.81C28.4616 27.56 28.7016 27.37 28.9316 27.25C29.1616 27.11 29.3916 27.04 29.6416 27.04C29.8316 27.04 30.0316 27.08 30.2516 27.17C30.4716 27.26 30.7016 27.39 30.9516 27.56L34.2616 29.91C34.5216 30.09 34.7016 30.3 34.8116 30.55C34.9116 30.8 34.9716 31.05 34.9716 31.33Z" fill="white"/>
</svg>
