<svg width="50" height="50" viewBox="0 0 50 50" fill="none" xmlns="http://www.w3.org/2000/svg">
<circle cx="25" cy="25" r="25" fill="#151B47"/>
<path d="M29.5862 15H20.4138C17.4286 15 15 17.4286 15 20.4138V29.5863C15 32.5714 17.4286 35 20.4138 35H29.5863C32.5714 35 35 32.5714 35 29.5863V20.4138C35 17.4286 32.5714 15 29.5862 15ZM25 30.4686C21.9846 30.4686 19.5314 28.0154 19.5314 25C19.5314 21.9846 21.9846 19.5314 25 19.5314C28.0154 19.5314 30.4686 21.9846 30.4686 25C30.4686 28.0154 28.0154 30.4686 25 30.4686ZM30.5994 20.8211C29.7083 20.8211 28.9835 20.0963 28.9835 19.2052C28.9835 18.3141 29.7083 17.5891 30.5994 17.5891C31.4905 17.5891 32.2154 18.3141 32.2154 19.2052C32.2154 20.0963 31.4905 20.8211 30.5994 20.8211Z" fill="white"/>
<path d="M25 20.7039C22.6312 20.7039 20.7039 22.6311 20.7039 25C20.7039 27.3688 22.6312 29.2961 25 29.2961C27.3689 29.2961 29.2961 27.3688 29.2961 25C29.2961 22.6311 27.3689 20.7039 25 20.7039Z" fill="white"/>
<path d="M30.5994 18.7617C30.3549 18.7617 30.1559 18.9607 30.1559 19.2052C30.1559 19.4496 30.3549 19.6486 30.5994 19.6486C30.844 19.6486 31.0429 19.4498 31.0429 19.2052C31.0429 18.9606 30.844 18.7617 30.5994 18.7617Z" fill="white"/>
</svg>
